HIERARCHY
ROOT Hips
{
    OFFSET 0.000000 0.000000 0.000000
    CHANNELS 6 Xposition Yposition Zposition Zrotation Xrotation Yrotation
    JOINT Spine
    {
        OFFSET -0.000000 8.226649 0.000000
        CHANNELS 3 Zrotation Xrotation Yrotation
        JOINT Spine1
        {
            OFFSET -0.000000 24.451035 0.000000
            CHANNELS 3 Zrotation Xrotation Yrotation
            JOINT Neck
            {
                OFFSET -0.000000 24.350622 2.213693
                CHANNELS 3 Zrotation Xrotation Yrotation
                JOINT Head
                {
                    OFFSET -0.000000 14.045498 -2.006500
                    CHANNELS 3 Zrotation Xrotation Yrotation
                    End Site
                    {
                        OFFSET -0.000000 25.081247 0.000000
                    }
                }
            }
            JOINT LeftShoulder
            {
                OFFSET 4.059404 22.255779 -0.272799
                CHANNELS 3 Zrotation Xrotation Yrotation
                JOINT LeftArm
                {
                    OFFSET 12.029813 0.000000 0.000000
                    CHANNELS 3 Zrotation Xrotation Yrotation
                    JOINT LeftForeArm
                    {
                        OFFSET 31.268898 0.000000 0.000000
                        CHANNELS 3 Zrotation Xrotation Yrotation
                        JOINT LeftHand
                        {
                            OFFSET 28.027487 0.000000 0.000000
                            CHANNELS 3 Zrotation Xrotation Yrotation
                            End Site
                            {
                                OFFSET 15.048748 0.000000 0.000000
                            }
                        }
                    }
                }
            }
            JOINT RightShoulder
            {
                OFFSET -3.964640 22.255779 -0.272799
                CHANNELS 3 Zrotation Xrotation Yrotation
                JOINT RightArm
                {
                    OFFSET -12.029813 0.000000 0.000000
                    CHANNELS 3 Zrotation Xrotation Yrotation
                    JOINT RightForeArm
                    {
                        OFFSET -31.268898 0.000000 0.000000
                        CHANNELS 3 Zrotation Xrotation Yrotation
                        JOINT RightHand
                        {
                            OFFSET -28.027487 0.000000 0.000000
                            CHANNELS 3 Zrotation Xrotation Yrotation
                            End Site
                            {
                                OFFSET -15.048748 0.000000 0.000000
                            }
                        }
                    }
                }
            }
        }
    }
    JOINT LeftUpLeg
    {
        OFFSET 10.032499 0.000000 0.000000
        CHANNELS 3 Zrotation Xrotation Yrotation
        JOINT LeftLeg
        {
            OFFSET -0.000000 -38.403259 0.000000
            CHANNELS 3 Zrotation Xrotation Yrotation
            JOINT LeftFoot
            {
                OFFSET -0.000000 -44.164154 0.000000
                CHANNELS 3 Zrotation Xrotation Yrotation
                JOINT LeftToeBase
                {
                    OFFSET -0.000000 -6.521124 15.048748
                    CHANNELS 3 Zrotation Xrotation Yrotation
                    End Site
                    {
                        OFFSET -0.000000 0.000000 4.013000
                    }
                }
            }
        }
    }
    JOINT RightUpLeg
    {
        OFFSET -10.032499 0.000000 0.000000
        CHANNELS 3 Zrotation Xrotation Yrotation
        JOINT RightLeg
        {
            OFFSET -0.000000 -38.403259 0.000000
            CHANNELS 3 Zrotation Xrotation Yrotation
            JOINT RightFoot
            {
                OFFSET -0.000000 -44.164154 0.000000
                CHANNELS 3 Zrotation Xrotation Yrotation
                JOINT RightToeBase
                {
                    OFFSET -0.000000 -6.521124 15.048748
                    CHANNELS 3 Zrotation Xrotation Yrotation
                    End Site
                    {
                        OFFSET -0.000000 0.000000 4.013000
                    }
                }
            }
        }
    }
}
MOTION
Frames:    11
Frame Time:    0.004000
-31.014677    85.320793    -232.321198    1.022673    0.618814    4.054349    -0.730318    -7.830992    0.484967    -1.384247    1.851451    0.557401    9.963932    15.944324    13.785306    -14.110546    -2.858319    11.999454    18.409588    0.949690    -7.686932    -20.456278    4.675414    -3.874962    2.911364    -6.093188    3.712823    15.784396    -5.550449    4.613883    -14.167328    -0.235192    3.949176    14.281887    0.669836    8.488009    -0.307373    -3.106304    -4.222299    -9.109409    -2.939872    -2.234120    -1.168230    4.031243    0.235303    -2.723996    2.910405    -3.112507    -0.512046    -8.615182    14.517395    0.000000    0.000000    0.000000    -2.309470    -1.296549    -1.124820    1.151232    16.559778    -1.111931    2.199944    -14.881692    -9.605866    0.000000    0.000000    0.000000    
-31.015867    85.321007    -232.320068    1.016616    0.615654    4.051576    -0.727478    -7.830263    0.483517    -1.376169    1.856667    0.555690    9.969052    15.976293    13.813739    -14.139476    -2.913056    12.020876    18.392025    0.947957    -7.685239    -20.435122    4.675832    -3.880482    2.911919    -6.088914    3.715161    15.724965    -5.549704    4.606444    -14.172433    -0.254112    3.960607    14.285968    0.691756    8.482582    -0.316001    -3.097492    -4.237351    -9.066384    -2.933928    -2.212954    -1.155071    4.026709    0.247949    -2.739348    2.925647    -3.109333    -0.522483    -8.626839    14.500659    0.000000    0.000000    0.000000    -2.298284    -1.286472    -1.112957    1.150078    16.549726    -1.114637    2.164864    -14.885345    -9.620373    0.000000    0.000000    0.000000    
-31.014050    85.320625    -232.320023    1.015411    0.615998    4.049524    -0.721438    -7.818924    0.485286    -1.377221    1.837856    0.556709    9.947107    15.997816    13.799941    -14.115143    -2.944839    12.008693    18.384989    0.967813    -7.696484    -20.428917    4.694811    -3.882729    2.913126    -6.094997    3.711424    15.728150    -5.557273    4.594329    -14.180058    -0.245798    3.951902    14.286990    0.657546    8.482724    -0.291958    -3.113257    -4.205418    -9.138794    -2.944675    -2.246332    -1.151874    4.021021    0.237462    -2.738265    2.883003    -3.142894    -0.546046    -8.559597    14.526266    0.000000    0.000000    0.000000    -2.299732    -1.307884    -1.248782    1.110385    16.588161    -0.988100    2.228190    -14.882966    -9.606264    0.000000    0.000000    0.000000    
-31.013649    85.322418    -232.321167    1.013902    0.624526    4.043793    -0.724107    -7.829723    0.486769    -1.367055    1.847132    0.558353    9.923276    15.939390    13.802028    -14.065948    -2.871988    12.022381    18.382927    0.945577    -7.694231    -20.433592    4.684938    -3.882999    2.903339    -6.073524    3.704176    15.747735    -5.535688    4.585515    -14.202542    -0.284982    3.953768    14.318070    0.674736    8.474312    -0.303195    -3.101995    -4.212767    -9.133879    -2.934934    -2.233701    -1.155632    4.015290    0.245991    -2.727653    2.871296    -3.102991    -0.591361    -8.538663    14.460726    0.000000    0.000000    0.000000    -2.294610    -1.319644    -1.306392    1.082322    16.587067    -0.968794    2.291137    -14.877446    -9.560268    0.000000    0.000000    0.000000    
-31.013590    85.322571    -232.318192    1.012614    0.614064    4.042944    -0.720735    -7.818608    0.486430    -1.371951    1.843751    0.557794    9.945858    15.963715    13.796811    -14.100341    -2.896608    12.010507    18.388895    0.955709    -7.697724    -20.439039    4.706600    -3.892272    2.931115    -6.106320    3.703380    15.714374    -5.566151    4.618985    -14.188091    -0.263558    3.956571    14.302980    0.668941    8.483290    -0.302402    -3.115649    -4.217290    -9.140315    -2.948024    -2.239142    -1.158003    4.032545    0.265103    -2.719037    2.868409    -3.153911    -0.577966    -8.533196    14.508629    0.000000    0.000000    0.000000    -2.296109    -1.301398    -1.271343    1.099764    16.574224    -0.998747    2.264305    -14.847062    -9.567500    0.000000    0.000000    0.000000    
-31.012333    85.323792    -232.317261    1.014248    0.616380    4.037791    -0.722454    -7.818854    0.488046    -1.365304    1.841714    0.559327    9.962496    15.963845    13.808405    -14.132372    -2.879013    12.019451    18.371605    0.949662    -7.701596    -20.427143    4.726669    -3.889040    2.923913    -6.082251    3.699501    15.717477    -5.547415    4.576628    -14.216946    -0.310885    3.954969    14.338773    0.694759    8.475813    -0.307568    -3.119149    -4.214950    -9.143930    -2.950395    -2.254609    -1.153364    4.023516    0.233004    -2.732265    2.884585    -3.146386    -0.584622    -8.550380    14.535670    0.000000    0.000000    0.000000    -2.293828    -1.311083    -1.315455    1.075391    16.590698    -0.921645    2.241216    -14.863042    -9.590694    0.000000    0.000000    0.000000    
-31.011847    85.324463    -232.317642    1.013525    0.619899    4.040510    -0.725007    -7.820251    0.484391    -1.357943    1.842122    0.555739    9.944977    15.934305    13.799191    -14.105885    -2.844748    12.015607    18.367088    0.963610    -7.696553    -20.419191    4.725248    -3.906006    2.924440    -6.104733    3.704633    15.722458    -5.575003    4.539330    -14.194907    -0.257441    3.950701    14.301460    0.654569    8.496202    -0.305557    -3.129941    -4.211378    -9.147993    -2.961806    -2.244739    -1.163059    4.028765    0.240561    -2.723858    2.915575    -3.098223    -0.492108    -8.604231    14.500134    0.000000    0.000000    0.000000    -2.296649    -1.303791    -1.253791    1.102255    16.572664    -0.984686    2.202059    -14.846250    -9.583438    0.000000    0.000000    0.000000    
-31.010269    85.322899    -232.314087    1.010347    0.604281    4.039467    -0.717340    -7.803578    0.485383    -1.363384    1.836466    0.556082    9.973968    15.964730    13.804929    -14.146892    -2.869802    12.014613    18.360840    0.967713    -7.704942    -20.409805    4.721149    -3.906336    2.930030    -6.070831    3.692092    15.676523    -5.536074    4.588156    -14.186942    -0.253680    3.952618    14.311794    0.651313    8.489678    -0.336321    -3.121323    -4.197045    -9.118158    -2.953912    -2.256801    -1.155524    4.052015    0.238791    -2.727705    2.907812    -3.119910    -0.544941    -8.611990    14.523543    0.000000    0.000000    0.000000    -2.294022    -1.287004    -1.306842    1.088602    16.577574    -0.889491    2.116786    -14.902393    -9.629132    0.000000    0.000000    0.000000    
-31.009930    85.325706    -232.317871    1.015421    0.625292    4.039031    -0.724668    -7.823617    0.482643    -1.361706    1.839622    0.554091    9.983701    15.976819    13.810418    -14.167576    -2.890771    12.015518    18.358545    0.962116    -7.703659    -20.409565    4.733737    -3.909410    2.931827    -6.071489    3.698455    15.687853    -5.544011    4.533344    -14.180121    -0.256357    3.956076    14.295280    0.657090    8.498966    -0.316024    -3.146683    -4.208347    -9.168219    -2.978248    -2.248635    -1.168737    4.029758    0.240137    -2.710696    2.846755    -3.081798    -0.610725    -8.515460    14.454891    0.000000    0.000000    0.000000    -2.301570    -1.314380    -1.275805    1.092897    16.579391    -0.993061    2.241363    -14.851871    -9.548203    0.000000    0.000000    0.000000    
-31.010223    85.325623    -232.315994    1.010620    0.617441    4.040262    -0.721652    -7.811343    0.479238    -1.357474    1.828620    0.550317    9.954479    16.015423    13.830935    -14.138227    -2.948997    12.038567    18.361065    0.971549    -7.701630    -20.409492    4.727464    -3.920748    2.923398    -6.088918    3.691064    15.721653    -5.556250    4.558061    -14.189173    -0.254723    3.968640    14.308230    0.666489    8.495378    -0.329030    -3.152668    -4.210915    -9.160489    -2.984170    -2.257329    -1.155652    4.025095    0.216613    -2.737586    2.927760    -3.096534    -0.545332    -8.602851    14.544611    0.000000    0.000000    0.000000    -2.296801    -1.301923    -1.281854    1.097492    16.578800    -0.916845    2.182717    -14.866829    -9.628834    0.000000    0.000000    0.000000    
-31.008896    85.326614    -232.311829    1.010257    0.603192    4.033919    -0.720682    -7.796954    0.482439    -1.348104    1.826224    0.553134    9.959636    15.990531    13.814149    -14.145026    -2.898932    12.023529    18.346794    0.978799    -7.720073    -20.406868    4.726384    -3.908676    2.935531    -6.078600    3.683347    15.677068    -5.548206    4.555986    -14.182828    -0.238011    3.956429    14.298265    0.652697    8.513803    -0.337215    -3.173254    -4.200024    -9.194096    -3.003159    -2.271952    -1.165065    4.060808    0.252099    -2.709638    2.839326    -3.078051    -0.573373    -8.497869    14.392432    0.000000    0.000000    0.000000    -2.292334    -1.277998    -1.242560    1.099633    16.555153    -1.022101    2.297635    -14.836762    -9.563212    0.000000    0.000000    0.000000    
